<svg preserveAspectRatio="xMidYMid meet" data-bbox="36.3 78.9 128.7 31.4" viewBox="36.3 78.9 128.7 31.4" height="200" width="200" xmlns="http://www.w3.org/2000/svg" data-type="shape" role="presentation" aria-hidden="true" aria-label="">
    <g>
        <path d="M42.3 110.2c-1.2 0-2.2-.3-3.1-1-.9-.6-1.6-1.5-2.1-2.6s-.8-2.4-.8-3.8V80.9c0-.6.2-1.1.6-1.4.4-.4.9-.6 1.4-.6.6 0 1.1.2 1.4.6.4.4.6.9.6 1.4v21.8c0 1 .2 1.8.6 2.4.4.6.9 1 1.4 1h1c.5 0 1 .2 1.3.6.3.4.5.9.5 1.4 0 .6-.3 1.1-.8 1.4-.5.5-1.1.7-2 .7z"></path>
        <path d="M62.2 110.3c-2.2 0-4.2-.5-5.9-1.4-1.7-.9-3.1-2.3-4-3.9-1-1.7-1.5-3.6-1.5-5.7 0-2.2.5-4.1 1.4-5.8.9-1.7 2.2-3 3.8-3.9 1.6-.9 3.5-1.4 5.6-1.4 2.1 0 3.9.5 5.4 1.4 1.5.9 2.6 2.2 3.4 3.8.8 1.6 1.2 3.5 1.2 5.6 0 .5-.2.9-.5 1.3-.3.3-.8.5-1.3.5H53.6v-3.2h16L68 98.7c0-1.3-.3-2.5-.8-3.6S66 93.2 65 92.6c-.9-.6-2.1-.9-3.4-.9-1.5 0-2.8.3-3.9 1s-1.9 1.6-2.5 2.7c-.6 1.2-.8 2.5-.8 3.9 0 1.5.3 2.8 1 3.9s1.6 2.1 2.8 2.7c1.2.7 2.5 1 4 1 .8 0 1.7-.2 2.5-.5.9-.3 1.6-.7 2.1-1.1.4-.3.8-.4 1.3-.5.5 0 .9.1 1.2.4.5.4.7.8.7 1.3s-.2.9-.6 1.2c-.9.7-2 1.3-3.4 1.8-1.3.6-2.6.8-3.8.8z"></path>
        <path d="M82.8 110.2c-.6 0-1.1-.2-1.5-.6-.4-.4-.6-.9-.6-1.5V90.3c0-.6.2-1.1.6-1.5.4-.4.9-.6 1.5-.6s1.1.2 1.5.6c.4.4.6.9.6 1.5v17.8c0 .6-.2 1.1-.6 1.5-.4.4-.9.6-1.5.6zm16.4 0c-.6 0-1.1-.2-1.5-.6-.4-.4-.6-.9-.6-1.5v-9.8c0-1.5-.3-2.8-.8-3.7-.6-1-1.3-1.7-2.3-2.1-.9-.5-2-.7-3.3-.7-1.1 0-2.1.2-3 .7-.9.5-1.6 1.1-2.2 1.8-.5.8-.8 1.6-.8 2.6h-2.5c0-1.7.4-3.2 1.2-4.5.8-1.3 1.9-2.4 3.3-3.1 1.4-.8 3-1.2 4.8-1.2 1.8 0 3.5.4 4.9 1.2 1.5.8 2.6 1.9 3.4 3.5.8 1.5 1.3 3.4 1.3 5.6v9.8c0 .6-.2 1.1-.6 1.5-.2.3-.7.5-1.3.5z"></path>
        <path d="M121.9 110.3c-2.1 0-4-.5-5.6-1.5-1.7-1-3-2.3-4-4-1-1.7-1.5-3.6-1.5-5.7s.4-4 1.3-5.7c.9-1.7 2.1-3 3.7-4 1.5-1 3.3-1.5 5.2-1.5 1.6 0 3 .3 4.4 1 1.3.7 2.5 1.5 3.4 2.7V81c0-.6.2-1.1.6-1.5.4-.4.9-.6 1.5-.6s1.1.2 1.5.6c.4.4.6.9.6 1.5v18.2c0 2.1-.5 4-1.5 5.7-1 1.7-2.3 3-3.9 4-1.7 1-3.6 1.4-5.7 1.4zm0-3.6c1.4 0 2.6-.3 3.6-1 1.1-.7 1.9-1.6 2.5-2.7.6-1.1.9-2.4.9-3.8s-.3-2.7-.9-3.8c-.6-1.1-1.5-2-2.5-2.7-1.1-.7-2.3-1-3.6-1-1.3 0-2.5.3-3.6 1s-1.9 1.5-2.6 2.7c-.6 1.1-.9 2.4-.9 3.8s.3 2.7.9 3.8c.6 1.1 1.5 2 2.6 2.7 1.1.7 2.3 1 3.6 1z"></path>
        <path d="M154 110.3c-2.2 0-4.1-.5-5.7-1.4-1.7-.9-3-2.3-3.9-3.9-.9-1.7-1.4-3.6-1.4-5.7 0-2.2.5-4.1 1.4-5.8.9-1.7 2.2-3 3.9-3.9 1.7-.9 3.6-1.4 5.7-1.4s4 .5 5.7 1.4c1.7.9 3 2.3 3.9 3.9.9 1.7 1.4 3.6 1.4 5.8 0 2.2-.5 4.1-1.4 5.7-.9 1.7-2.2 3-3.9 3.9-1.6 1-3.5 1.4-5.7 1.4zm0-3.6c1.4 0 2.6-.3 3.7-1 1.1-.6 1.9-1.5 2.5-2.6.6-1.1.9-2.4.9-3.9s-.3-2.8-.9-3.9c-.6-1.1-1.4-2-2.5-2.7-1.1-.6-2.3-1-3.7-1-1.4 0-2.6.3-3.7 1-1.1.6-1.9 1.5-2.5 2.7-.6 1.1-.9 2.4-.9 3.9s.3 2.8.9 3.9c.6 1.1 1.5 2 2.5 2.6 1.1.7 2.4 1 3.7 1z"></path>
    </g>
</svg>